<svg aria-hidden="true" style="position: absolute; width: 0; height: 0; overflow: hidden;" version="1.1" xmlns="http://www.w3.org/2000/svg" xmlns:xlink="http://www.w3.org/1999/xlink">
<defs>
<symbol id="icon-pinterest" viewBox="0 0 32 32">
<path fill="#fff" style="fill: var(--color1, #fff)" d="M16 1c-8.3 0-15 6.7-15 15s3.5 11.1 8.5 13.5c0-1.3 0.1-2.4 0.3-3.3l1.9-8c-0.1-0.4-0.5-1.2-0.5-2.4 0-2.5 1.5-4.4 3.4-4.4s2.5 1.1 2.5 2.8-0.4 2.1-0.8 3.4l-0.6 2.1c-0.1 0.6 0 1.1 0.3 1.6 0.4 0.5 0.9 0.7 1.6 0.7 2.4 0 4.3-3.2 4.3-7.5s-2.2-5.2-5.7-5.2-6.9 3.4-6.9 6.7 0.3 1.9 0.9 2.6c0.3 0.4 0.5 0.7 0.3 1.3l-0.3 1.2c-0.1 0.3-0.3 0.6-0.5 0.7-0.3 0.1-0.6 0.1-0.9 0-2.1-0.9-3.4-3.2-3.4-6.2 0-4.9 4.2-9.9 11.2-9.9s10 4.6 10 9.1-3.6 10.8-8.6 10.8-2.6-0.5-3.4-1.3c-0.3 1.1-0.7 2.7-0.8 3.2-0.3 1.2-1 2.4-1.5 3.2 1.2 0.3 2.4 0.5 3.7 0.5 8.3 0 15-6.7 15-15s-6.7-15.2-15-15.2z"></path>
</symbol>
<symbol id="icon-basket" viewBox="0 0 32 32">
<path d="M25.932 27.504h-1.273c-0.165 0-0.299-0.134-0.299-0.299v-1.273c0-0.537-0.437-0.974-0.975-0.974s-0.974 0.437-0.974 0.974v1.273c0 0.165-0.134 0.299-0.299 0.299h-1.273c-0.537 0-0.974 0.437-0.974 0.975s0.437 0.974 0.974 0.974h1.273c0.165 0 0.299 0.134 0.299 0.299v1.273c0 0.537 0.437 0.974 0.974 0.974s0.975-0.437 0.975-0.974v-1.273c0-0.165 0.134-0.299 0.299-0.299h1.273c0.537 0 0.974-0.437 0.974-0.974s-0.437-0.975-0.974-0.975z"></path>
<path d="M25.932 7.64h-3.88c-0.152 0-0.279-0.114-0.297-0.264-0.495-4.205-4.064-7.376-8.302-7.376s-7.806 3.171-8.301 7.376c-0.018 0.149-0.144 0.264-0.297 0.264h-3.881c-0.537 0-0.974 0.437-0.974 0.974v22.411c0 0.537 0.437 0.974 0.974 0.974h14.771c0.537 0 0.975-0.437 0.975-0.974s-0.437-0.974-0.975-0.974h-13.497c-0.165 0-0.299-0.134-0.299-0.299v-19.865c0-0.165 0.134-0.299 0.299-0.299h2.547c0.165 0 0.299 0.134 0.299 0.299v3.82c0 0.537 0.437 0.974 0.974 0.974s0.974-0.437 0.974-0.974v-3.82c0-0.165 0.134-0.299 0.299-0.299h12.224c0.165 0 0.299 0.134 0.299 0.299v3.82c0 0.537 0.437 0.974 0.974 0.974s0.974-0.437 0.974-0.974v-3.82c0-0.165 0.134-0.299 0.299-0.299h2.547c0.165 0 0.299 0.134 0.299 0.299v10.951c0 0.537 0.437 0.975 0.974 0.975s0.974-0.437 0.974-0.975v-12.224c0-0.537-0.437-0.974-0.974-0.974zM19.708 7.534c-0.055 0.065-0.137 0.106-0.228 0.106-0 0-0 0-0 0h-12.053c-0.088 0-0.172-0.039-0.228-0.106-0.044-0.052-0.071-0.119-0.071-0.193 0-0.018 0.002-0.035 0.004-0.051l-0 0.002c0.249-1.476 1.017-2.828 2.163-3.807 1.159-0.99 2.636-1.536 4.159-1.536s3 0.545 4.159 1.536c1.146 0.979 1.914 2.331 2.163 3.807 0.015 0.087-0.010 0.175-0.067 0.243z"></path>
</symbol>
<symbol id="icon-BON" viewBox="0 0 68 32">
<path d="M33.629 1.222c-8.162 0-14.779 6.616-14.779 14.779s6.616 14.779 14.779 14.779 14.932-6.616 14.932-14.779-6.769-14.778-14.932-14.778zM33.629 30.227c-7.813 0-11.082-6.334-11.082-14.147s3.269-14.147 11.082-14.147 11.172 6.334 11.172 14.147-3.359 14.147-11.172 14.147z"></path>
<path d="M36.524 15.767c-0.367-0.284-0.881-0.465-1.522-1.14-0.642-0.623-0.816-1.069-1.061-1.443-0.064-0.098-0.133-0.134-0.215-0.134-0.114 0-0.2 0.081-0.243 0.134-0.182 0.227-0.43 0.775-1.045 1.391-0.572 0.572-1.382 1.030-1.537 1.191-0.169 0.141-0.205 0.313 0 0.46 0.375 0.193 0.795 0.461 1.346 0.949 0.728 0.64 1.014 1.203 1.236 1.636 0.079 0.205 0.382 0.183 0.465-0.019 0.165-0.403 0.465-0.82 1.054-1.46 0.684-0.661 1.162-0.954 1.501-1.107 0.081-0.038 0.151-0.139 0.151-0.222 0-0.131-0.053-0.174-0.131-0.234zM14.348 14.882c-0.384-0.671-0.823-1.253-1.315-1.747-0.494-0.494-1.002-0.904-1.522-1.234-1.207-0.768-2.577-1.288-4.113-1.563 1.234-0.11 2.329-0.329 3.29-0.658 0.823-0.301 1.577-0.72 2.262-1.255 0.685-0.534 1.028-1.267 1.028-2.2 0-0.52-0.158-1.048-0.473-1.584-0.315-0.534-0.823-1.021-1.522-1.46-0.699-0.437-1.598-0.795-2.694-1.069s-2.414-0.411-3.948-0.411h-3.667c-0.532 0-0.94 0.456-0.897 0.98 0.172 2.081 0.634 5.668 0.685 7.754l0.141 5.661c0.186 4.535-0.331 9.076-0.885 13.585-0.003 0.027-0.005 0.057-0.005 0.089 0 0.396 0.321 0.717 0.717 0.717 0 0 0.001 0 0.001 0h3.908c1.536 0 2.934-0.246 4.196-0.74 1.26-0.494 2.345-1.193 3.249-2.097s1.605-1.987 2.097-3.249c0.494-1.26 0.74-2.658 0.74-4.194 0-1.124-0.117-2.125-0.35-3.003-0.232-0.876-0.542-1.651-0.925-2.324zM5.115 3.015c0.102-0.281 0.434-0.492 0.732-0.48 1.606 0.060 2.794 0.413 3.566 1.061 0.851 0.713 1.276 1.591 1.276 2.632s-0.425 1.92-1.276 2.632c-0.425 0.356-1.183 0.623-2.068 0.802-0.677 0.136-1.639 0.291-2.829 0.267 0-4.562 0.291-6.069 0.599-6.912zM11.408 24.464c-0.343 1.193-0.809 2.173-1.398 2.941-0.591 0.768-1.283 1.336-2.076 1.706-0.606 0.282-1.252 0.456-1.937 0.523-0.363 0.036-0.687-0.231-0.735-0.592-0.473-3.424-0.743-7.381-0.744-11.402v-6.892c0.931 0 2.62 0.186 3.416 0.556s1.488 0.94 2.076 1.706c0.589 0.768 1.055 1.747 1.398 2.941s0.515 2.612 0.515 4.256-0.172 3.064-0.515 4.256zM66.82 4.445l0.227-2.112c0.002-0.018 0.003-0.040 0.003-0.062 0-0.315-0.255-0.57-0.57-0.57h-3.213c-0.339 0-0.603 0.294-0.566 0.632l0.227 2.114c0.363 3.376 0.56 6.766 0.606 10.159-1.009-3.712-2.037-6.444-3.054-8.408l0.005 0.005c-0.561-1.272-1.184-2.457-1.553-3.142-0.193-0.358-0.343-0.627-0.456-0.825-0.164-0.283-0.465-0.47-0.81-0.47-0.001 0-0.003 0-0.004 0h-3.789c-0.391 0-0.751 0.005-1.064 0.009-0.081 0-0.272 0.017-0.42 0.153-0.182 0.167-0.234 0.46-0.17 0.689 0.069 0.244 0.251 0.401 0.553 0.565 0.816 0.448 1.92 1.197 2.774 1.94-1.791 6.742-5.742 21.508-7.866 24.439-0.272 0.375 0.079 0.904 0.542 0.904h4.065c0.448 0 1.209-0.195 0.627-1.276-1.377-2.557 2.083-15.248 4.023-22.696 0.31 0.332 0.742 0.835 1.341 1.611 1.491 1.885 2.553 3.931 3.307 5.895 1.408 3.676 1.889 7.639 1.551 11.561-0.062 0.728-0.133 1.455-0.212 2.181l-0.227 2.114c-0.002 0.018-0.003 0.040-0.003 0.062 0 0.315 0.255 0.57 0.57 0.57h3.213c0.339 0 0.603-0.294 0.566-0.632l-0.227-2.114c-0.399-3.494-0.626-7.544-0.627-11.648v-0.001c0-3.891 0.208-7.78 0.627-11.649z"></path>
</symbol>
<symbol id="icon-burgerMenu" viewBox="0 0 35 32">
<path d="M34.438 1.956h-33.46c-0.514 0-0.931-0.417-0.931-0.931s0.417-0.931 0.931-0.931h33.46c0.514 0 0.931 0.417 0.931 0.931s-0.417 0.931-0.931 0.931zM34.438 16.931h-33.46c-0.514 0-0.931-0.417-0.931-0.931s0.417-0.931 0.931-0.931h33.46c0.514 0 0.931 0.417 0.931 0.931s-0.417 0.931-0.931 0.931zM34.438 31.907h-33.46c-0.514 0-0.931-0.417-0.931-0.931s0.417-0.931 0.931-0.931h33.46c0.514 0 0.931 0.417 0.931 0.931s-0.417 0.931-0.931 0.931z"></path>
</symbol>
<symbol id="icon-cross" viewBox="0 0 32 32">
<path d="M17.377 16l14.339-14.339c0.38-0.38 0.38-0.997 0-1.377-0.38-0.379-0.996-0.379-1.376 0l-14.339 14.339-14.339-14.339c-0.38-0.379-0.996-0.379-1.376 0-0.38 0.38-0.38 0.997 0 1.377l14.339 14.339-14.339 14.339c-0.38 0.38-0.38 0.997 0 1.377 0.19 0.189 0.439 0.284 0.688 0.284s0.498-0.095 0.688-0.285l14.339-14.339 14.339 14.339c0.19 0.189 0.439 0.285 0.688 0.285s0.498-0.095 0.688-0.285c0.38-0.38 0.38-0.997 0-1.377l-14.339-14.339z"></path>
</symbol>
<symbol id="icon-e_etsy" viewBox="0 0 32 32">
<path d="M26.881 32h-21.761c-2.823 0-5.119-2.296-5.119-5.119v-21.761c0-2.823 2.296-5.119 5.119-5.119h21.761c2.823 0 5.119 2.296 5.119 5.119v21.761c0 2.823-2.296 5.119-5.119 5.119zM5.119 2.078c-1.677 0-3.041 1.364-3.041 3.041v21.761c0 1.677 1.364 3.041 3.041 3.041h21.761c1.677 0 3.041-1.364 3.041-3.041v-21.761c0-1.677-1.364-3.041-3.041-3.041h-21.761z"></path>
<path d="M22.938 19.883l-0.639 2.052c-0.34 1.094-1.352 1.84-2.497 1.84h-4.886c-0.726 0-1.314-0.588-1.314-1.314v-5.514h3.538c0.929 0 1.682 0.753 1.682 1.682v0.432c0 0.129 0.104 0.233 0.233 0.233v0h0.726c0.129 0 0.233-0.104 0.233-0.233v0-6.363c0-0.129-0.104-0.233-0.233-0.233v0h-0.719c-0.129 0-0.233 0.104-0.233 0.233v0 0.68c0 0.929-0.753 1.682-1.682 1.682h-3.545v-5.518c0-0.726 0.588-1.314 1.314-1.314h4.641c1.196 0 2.167 0.968 2.171 2.164v1.309c0 0.129 0.104 0.233 0.233 0.233v0h0.85c0 0 0 0 0 0 0.122 0 0.222-0.094 0.231-0.214l0-0.001 0.359-4.495c0.020-0.296-0.204-0.552-0.5-0.572-0.012-0.001-0.025-0.001-0.037-0.001h-14.74c-0.205 0-0.371 0.166-0.371 0.371v0.835c0 0.205 0.166 0.371 0.371 0.371h0.942c0.726 0 1.314 0.588 1.314 1.314v12.921c0 0.726-0.588 1.314-1.314 1.314h-0.942c-0.205 0-0.371 0.166-0.371 0.371v0.835c0 0.205 0.166 0.371 0.371 0.371h14.857c0.266 0 0.493-0.194 0.532-0.457l0.733-4.907c0.019-0.127-0.069-0.246-0.196-0.265-0.012-0.002-0.023-0.002-0.035-0.002h-0.85c-0.001-0-0.002-0-0.004-0-0.104 0-0.192 0.068-0.222 0.162l-0 0.002z"></path>
</symbol>
<symbol id="icon-heart" viewBox="0 0 44 32">
<path d="M21.866 32c-0.253 0-0.507-0.090-0.708-0.271-2.125-1.906-4.945-3.329-7.931-4.837-3.16-1.595-6.428-3.244-8.916-5.565-2.9-2.704-4.31-5.943-4.31-9.902 0-6.3 5.129-11.426 11.433-11.426 4.584 0 8.547 2.714 10.365 6.619 1.818-3.906 5.781-6.619 10.365-6.619 6.3 0 11.426 5.125 11.426 11.426 0 3.883-1.401 7.087-4.282 9.792-2.47 2.32-5.716 3.998-8.855 5.622-2.964 1.533-5.764 2.981-7.875 4.887-0.202 0.182-0.456 0.273-0.711 0.273zM11.433 2.121c-5.134 0-9.312 4.174-9.312 9.304 0 7.486 5.858 10.443 12.060 13.573 2.685 1.355 5.452 2.751 7.681 4.547 2.21-1.796 4.953-3.215 7.614-4.591 6.166-3.189 11.99-6.201 11.99-13.53 0-5.13-4.174-9.304-9.304-9.304s-9.304 4.174-9.304 9.304c0 0.586-0.475 1.061-1.061 1.061s-1.061-0.475-1.061-1.061c0-5.13-4.174-9.304-9.304-9.304z"></path>
</symbol>
<symbol id="icon-heart-favorite" viewBox="-1 -1 40.37 30.1" overflow="visible">
    <path
    stroke="currentColor"
    stroke-width="2.5"
    stroke-linecap="round"
    stroke-linejoin="round"
    d="M37.87,9.84c0-5.16-4.18-9.34-9.34-9.34s-9.34,4.18-9.34,9.34C19.19,4.68,15,.5,9.85.5S.5,4.68.5,9.84c0,10.82,12.51,11.99,18.75,17.59,6.2-5.59,18.62-6.99,18.62-17.59"
  />
</symbol>
<symbol id="icon-with-star" viewBox="0 0 43 32">
<path d="M21.21-8.705c-10.616 0-19.223 8.607-19.223 19.223s8.607 19.223 19.223 19.223 19.422-8.607 19.422-19.223-8.805-19.223-19.422-19.223zM21.21 29.024c-10.163 0-14.415-8.239-14.415-18.402s4.252-18.402 14.415-18.402 14.532 8.239 14.532 18.402-4.368 18.402-14.531 18.402z"></path>
<path d="M24.976 10.215c-0.478-0.371-1.145-0.604-1.98-1.484-0.834-0.812-1.061-1.39-1.38-1.876-0.084-0.127-0.172-0.175-0.281-0.175-0.148 0-0.261 0.106-0.317 0.175-0.237 0.295-0.559 1.009-1.359 1.808-0.744 0.744-1.799 1.339-1.999 1.55-0.219 0.184-0.266 0.408 0 0.596 0.489 0.252 1.034 0.601 1.752 1.233 0.947 0.834 1.317 1.565 1.607 2.127 0.104 0.266 0.498 0.236 0.605-0.025 0.216-0.523 0.605-1.066 1.371-1.899 0.89-0.86 1.513-1.239 1.953-1.44 0.106-0.048 0.197-0.182 0.197-0.29 0-0.171-0.070-0.226-0.169-0.304z"></path>
</symbol>
<symbol id="icon-logo" viewBox="0 0 236 32">
<path d="M35.121 0.487c-8.575 0-15.526 6.951-15.526 15.526s6.951 15.526 15.526 15.526 15.686-6.951 15.686-15.526-7.111-15.526-15.686-15.526zM35.121 30.957c-8.208 0-11.642-6.653-11.642-14.861s3.434-14.861 11.642-14.861 11.736 6.653 11.736 14.861-3.528 14.861-11.736 14.861z"></path>
<path d="M38.162 15.766c-0.385-0.298-0.927-0.487-1.599-1.199-0.672-0.654-0.858-1.123-1.115-1.515-0.069-0.102-0.138-0.142-0.225-0.142-0.12 0-0.211 0.087-0.254 0.142-0.193 0.24-0.451 0.814-1.097 1.461-0.6 0.6-1.453 1.079-1.617 1.254-0.178 0.149-0.214 0.331 0 0.483 0.396 0.203 0.836 0.487 1.417 0.996 0.763 0.672 1.065 1.264 1.297 1.719 0.084 0.214 0.403 0.193 0.491-0.018 0.174-0.421 0.487-0.861 1.108-1.533 0.719-0.694 1.221-1.003 1.577-1.163 0.087-0.040 0.16-0.145 0.16-0.233 0-0.138-0.054-0.182-0.138-0.243zM214.669 17.938l-6.471 0.018c-0.392 0-0.709 0.316-0.709 0.709v0.011c0 0.262 0.142 0.505 0.378 0.625 1.101 0.563 2.671 1.101 2.18 3.27-0.065 0.294-0.171 0.585-0.298 0.861-1.962 4.277-5.574 7.22-9.756 7.467-0.276 0.025-0.549 0.036-0.821 0.029-6.329-0.134-11.642-6.533-11.642-14.861 0-0.243 0.007-0.487 0.018-0.727 0.2-5.163 2.507-9.629 5.872-12.096 1.679-1.279 3.633-2.038 5.755-2.038 0.065 0 0.131 0.004 0.193 0.004h0.058c3.481 0 6.042 1.726 7.91 3.739 2.416 2.605 3.445 6.431 3.575 6.537 0.116 0.225 0.349 0.378 0.621 0.378 0.356 0 0.647-0.262 0.694-0.603 0-0.007 0.004-0.015 0.007-0.022 0.022-0.098 0.033-0.207 0.033-0.342 0 0 0.007-1.653 0.007-2.765 0-0.712-0.011-1.297-0.029-1.784 0-0.85-0.004-1.646-0.007-1.711v-0.025c0-0 0-0 0-0 0-0.391-0.317-0.707-0.707-0.707-0.255 0-0.478 0.135-0.603 0.337l-0.002 0.003c-0.011 0.018-0.025 0.033-0.040 0.051-0.465 0.767-0.454 1.308-1.257 0.585 0 0 0.004 0.007 0.007 0.011-2.812-2.812-6.431-4.516-10.788-4.429-8.063 0.163-14.748 6.613-15.181 14.668-0.48 8.96 6.646 16.38 15.5 16.38 6.177 0 11.355-3.608 13.851-8.833 0.629-1.261 1.025-2.663 2.173-3.383 0.636-0.396 0.73-1.359-0.523-1.355zM115.065 1.628c0.036-0.352-0.24-0.661-0.592-0.661h-3.663c-0.356 0-0.629 0.309-0.592 0.661l0.24 2.209c0.436 4.040 0.654 8.106 0.654 12.172s-0.218 8.31-0.654 12.35l-0.24 2.209c-0.036 0.352 0.24 0.661 0.592 0.661h3.663c0.356 0 0.629-0.309 0.592-0.661l-0.24-2.209c-0.436-4.040-0.654-8.284-0.654-12.35s0.218-8.128 0.654-12.172l0.24-2.209zM14.868 14.839c-0.403-0.705-0.865-1.319-1.381-1.835-0.52-0.52-1.050-0.952-1.599-1.297-1.268-0.807-2.707-1.352-4.32-1.642 1.297-0.116 2.449-0.345 3.455-0.69 0.865-0.316 1.657-0.756 2.376-1.319s1.079-1.333 1.079-2.311c0-0.545-0.167-1.101-0.498-1.664s-0.865-1.072-1.599-1.533c-0.734-0.461-1.679-0.836-2.83-1.123s-2.536-0.432-4.146-0.432h-3.855c-0.56 0-0.988 0.48-0.941 1.028 0.182 2.187 0.665 5.952 0.719 8.146l0.149 5.948c0.196 4.763-0.345 9.534-0.93 14.272-0.054 0.451 0.294 0.847 0.749 0.847h4.106c1.613 0 3.081-0.258 4.407-0.778 1.323-0.52 2.463-1.254 3.412-2.202 0.952-0.952 1.686-2.089 2.202-3.412 0.52-1.326 0.778-2.794 0.778-4.407 0-1.181-0.124-2.231-0.367-3.154s-0.57-1.733-0.974-2.442zM5.167 2.369c0.109-0.294 0.454-0.516 0.767-0.505 1.686 0.062 2.936 0.436 3.746 1.115 0.894 0.748 1.341 1.671 1.341 2.765s-0.447 2.017-1.341 2.765c-0.447 0.374-1.243 0.654-2.173 0.843-0.712 0.142-1.722 0.305-2.972 0.28 0-4.793 0.305-6.377 0.629-7.26zM11.78 24.904c-0.36 1.254-0.85 2.282-1.468 3.088-0.621 0.807-1.348 1.403-2.18 1.791-0.636 0.298-1.315 0.48-2.035 0.549-0.381 0.036-0.723-0.243-0.77-0.621-0.497-3.597-0.781-7.753-0.781-11.975v-7.242c0.977 0 2.754 0.196 3.59 0.585s1.562 0.988 2.18 1.791c0.618 0.807 1.108 1.835 1.468 3.088s0.541 2.743 0.541 4.473-0.182 3.219-0.541 4.473zM105.632 1.032h-4.269c-0.472 0-1.268 0.203-0.658 1.341 1.595 2.965-2.994 18.89-4.8 26.077-3.597-8.382-6.842-23.305-5.37-26.397 0.236-0.494-0.124-1.065-0.669-1.065h-4.869c-0.429 0-0.716 0.447-0.534 0.836 0.763 1.621 1.37 3.31 1.802 5.047l5.912 23.654c0.114 0.408 0.482 0.703 0.919 0.705h3.154c0.429 0 0.807-0.287 0.919-0.701 1.101-4.004 6.399-24.918 9.033-28.548 0.287-0.396-0.084-0.948-0.57-0.948zM181.496 25.373l-5.912-23.654c-0.114-0.408-0.482-0.703-0.919-0.705h-3.154c-0.429 0-0.807 0.287-0.919 0.701-1.101 4.004-6.399 24.918-9.033 28.548-0.287 0.396 0.084 0.948 0.57 0.948h4.269c0.472 0 1.268-0.203 0.658-1.341-0.774-1.439-0.091-5.941 1.028-11.009 1.366-0.073 3.452-0.124 4.873-0.124 1.224 0 2.373 0.033 3.455 0.087 1.097 5.229 1.559 9.803 0.814 11.366-0.236 0.494 0.124 1.065 0.669 1.065h4.869c0.429 0 0.716-0.447 0.534-0.836-0.763-1.621-1.37-3.31-1.802-5.047zM173.204 17.735c-1.392 0-3.466-0.029-4.851-0.084 1.155-5.040 2.645-10.443 3.503-13.862 1.65 3.844 3.227 9.066 4.306 13.887-0.948 0.033-1.933 0.055-2.958 0.058zM164.578 4.273c0.131 0.28 0.32 0.523 0.6 0.556 0.316 0.036 0.607-0.163 0.512-0.73l-0.349-2.434c-0.091-0.331-0.291-0.65-0.65-0.65h-20.631c-0.36 0-0.563 0.32-0.65 0.65l-0.349 2.434c-0.098 0.567 0.196 0.767 0.512 0.73 0.28-0.033 0.469-0.28 0.6-0.556 0.749-1.588 2.347-2.238 4.404-2.238h3.274c0.385 0 0.709 0.291 0.752 0.676l0.124 1.148c0.436 4.040-0.091 20.486-0.527 24.526l-0.24 2.209c-0.036 0.352 0.24 0.661 0.592 0.661h3.663c0.356 0 0.632-0.309 0.592-0.661l-0.24-2.209c-0.436-4.040-0.883-20.486-0.447-24.526l0.124-1.148c0.042-0.382 0.362-0.676 0.752-0.676 0 0 0 0 0.001 0h3.187c2.057 0 3.655 0.65 4.404 2.238zM234.915 27.273c-0.28 0.033-0.469 0.28-0.6 0.556-0.749 1.588-2.347 2.238-8.644 2.238h-2.809c-0.447 0-0.81-0.363-0.81-0.81v-15.766h5.559c0.908 0 1.755 0.465 2.238 1.235l0.011 0.018c0.163 0.262 0.32 0.523 0.6 0.556 0.316 0.036 0.53-0.174 0.512-0.73l0.011-1.206h0.007v-0.77h-0.007l-0.011-1.206c0.018-0.556-0.196-0.767-0.512-0.73-0.28 0.033-0.436 0.294-0.6 0.556l-0.011 0.018c-0.475 0.747-1.299 1.235-2.237 1.235-0.002 0-0.004 0-0.005 0h-5.559v-9.709c0-0.447 0.363-0.81 0.81-0.81h5.843c2.057 0 3.655 0.65 4.404 2.238 0.131 0.28 0.32 0.523 0.6 0.556 0.316 0.036 0.607-0.163 0.512-0.73l-0.349-2.434c-0.091-0.331-0.291-0.65-0.65-0.65h-12.39l-1.864-0.098h-0.298c-0.356 0-0.629 0.309-0.592 0.661l0.24 2.209c0.436 4.040 0.654 8.106 0.654 12.172s-0.218 8.302-0.654 12.343l-0.24 2.209c-0.036 0.352 0.24 0.661 0.592 0.661h0.876v0.015h14.886c0.36 0 0.563-0.32 0.65-0.65l0.349-2.434c0.098-0.567-0.196-0.767-0.512-0.73zM69.988 3.873l0.24-2.22c0.036-0.352-0.24-0.665-0.596-0.665h-3.376c-0.356 0-0.632 0.309-0.596 0.665l0.24 2.22c0.357 3.142 0.587 6.847 0.635 10.595l0.001 0.076c-1.061-3.899-2.14-6.769-3.208-8.833 0 0 0.004 0.004 0.004 0.007-0.589-1.337-1.243-2.58-1.631-3.299-0.203-0.374-0.36-0.658-0.48-0.865-0.171-0.297-0.487-0.494-0.849-0.494-0.002 0-0.003 0-0.005 0h-3.982c-0.411 0-0.788 0.007-1.119 0.007-0.084 0-0.287 0.018-0.44 0.16-0.193 0.174-0.243 0.483-0.178 0.723 0.073 0.258 0.265 0.421 0.581 0.592 0.858 0.469 2.017 1.257 2.914 2.038-1.882 7.082-6.032 22.593-8.263 25.674-0.287 0.392 0.084 0.948 0.57 0.948h4.269c0.472 0 1.268-0.203 0.658-1.341-1.446-2.685 2.187-16.020 4.226-23.843 0.327 0.349 0.778 0.876 1.41 1.693 1.566 1.98 2.681 4.131 3.474 6.195 1.479 3.859 1.984 8.026 1.631 12.147-0.065 0.763-0.138 1.53-0.222 2.293l-0.24 2.22c-0.040 0.352 0.24 0.665 0.596 0.665h3.376c0.356 0 0.632-0.309 0.596-0.665l-0.24-2.22c-0.419-3.666-0.658-7.914-0.658-12.218 0-0.007 0-0.014 0-0.021v0.001c0-4.088 0.218-8.172 0.658-12.238zM139.187 3.873l0.24-2.22c0.040-0.352-0.24-0.665-0.596-0.665h-3.375c-0.356 0-0.632 0.309-0.596 0.665l0.24 2.22c0.357 3.142 0.587 6.847 0.635 10.595l0.001 0.076c-1.061-3.899-2.14-6.769-3.208-8.833 0 0 0.004 0.004 0.004 0.007-0.589-1.337-1.243-2.58-1.631-3.299-0.203-0.374-0.36-0.658-0.48-0.865-0.171-0.297-0.487-0.494-0.849-0.494-0.002 0-0.003 0-0.005 0h-3.982c-0.411 0-0.788 0.007-1.119 0.007-0.084 0-0.287 0.018-0.44 0.16-0.193 0.174-0.243 0.483-0.178 0.723 0.073 0.258 0.265 0.421 0.581 0.592 0.858 0.469 2.017 1.257 2.914 2.038-1.882 7.082-6.032 22.593-8.263 25.674-0.287 0.392 0.084 0.948 0.57 0.948h4.269c0.472 0 1.268-0.203 0.658-1.341-1.446-2.685 2.187-16.020 4.226-23.843 0.327 0.349 0.778 0.876 1.41 1.693 1.566 1.98 2.681 4.131 3.474 6.195 1.479 3.859 1.984 8.026 1.631 12.147-0.065 0.763-0.138 1.53-0.222 2.293l-0.24 2.22c-0.036 0.352 0.24 0.665 0.596 0.665h3.375c0.356 0 0.632-0.309 0.596-0.665l-0.24-2.22c-0.419-3.666-0.658-7.914-0.658-12.218 0-0.007 0-0.014 0-0.021v0.001c0-4.088 0.218-8.172 0.658-12.238z"></path>
</symbol>
<symbol id="icon-insta" viewBox="0 0 32 32">
<path d="M23.228 0h-14.456c-4.837 0-8.772 3.935-8.772 8.772v14.455c0 4.837 3.935 8.772 8.772 8.772h14.456c4.837 0 8.772-3.935 8.772-8.772v-14.455c0-4.837-3.935-8.772-8.772-8.772zM30.11 23.228c0 3.795-3.087 6.883-6.883 6.883h-14.456c-3.795 0-6.883-3.087-6.883-6.883v-14.455c0-3.795 3.087-6.883 6.883-6.883h14.456c3.795 0 6.883 3.087 6.883 6.883v14.455z"></path>
<path d="M16 7.223c-4.84 0-8.777 3.937-8.777 8.777s3.937 8.777 8.777 8.777 8.777-3.937 8.777-8.777-3.937-8.777-8.777-8.777zM16 22.887c-3.798 0-6.887-3.090-6.887-6.887s3.090-6.887 6.887-6.887 6.887 3.090 6.887 6.887-3.090 6.887-6.887 6.887zM25.302 4.031c-1.47 0-2.667 1.196-2.667 2.667s1.196 2.667 2.667 2.667 2.667-1.196 2.667-2.667-1.196-2.667-2.667-2.667zM25.302 7.475c-0.428 0-0.777-0.348-0.777-0.777s0.349-0.777 0.777-0.777 0.777 0.349 0.777 0.777-0.348 0.777-0.777 0.777z"></path>
</symbol>
<symbol id="icon-user" viewBox="0 0 32 32">
<path d="M16.079 17.486c-4.821 0-8.743-3.922-8.743-8.743s3.922-8.743 8.743-8.743 8.743 3.922 8.743 8.743-3.922 8.743-8.743 8.743zM16.079 2.010c-3.713 0-6.733 3.020-6.733 6.733s3.020 6.733 6.733 6.733 6.733-3.020 6.733-6.733-3.020-6.733-6.733-6.733zM29.882 32h-27.606c-0.602 0-1.169-0.228-1.597-0.643-0.438-0.423-0.678-0.988-0.678-1.592 0.001-0.916 0.001-1.143 0.003-1.218 0.044-2.27 0.797-5.515 4.132-8.075 2.090-1.605 4.988-1.99 7.563-1.004 0.684 0.266 1.415 0.501 2.178 0.699 1.436 0.375 2.953 0.377 4.387 0.006 0.758-0.197 1.497-0.435 2.197-0.704 2.575-0.99 5.473-0.605 7.563 1.004 3.334 2.56 4.087 5.803 4.131 8.074 0.002 0.075 0.002 0.303 0.003 1.218 0.001 0.603-0.24 1.168-0.678 1.592-0.428 0.414-0.996 0.643-1.598 0.643zM2.012 28.598c-0.001 0.091-0.002 0.628-0.002 1.169 0 0.068 0.036 0.117 0.065 0.146s0.096 0.078 0.2 0.078h27.606c0.105 0 0.17-0.049 0.201-0.078s0.066-0.078 0.065-0.146c-0-0.541-0.001-1.078-0.002-1.169v-0.011c-0.036-1.83-0.645-4.446-3.346-6.52-1.54-1.185-3.692-1.461-5.616-0.722-0.769 0.297-1.581 0.557-2.413 0.774-1.767 0.457-3.634 0.455-5.4-0.006-0.837-0.218-1.643-0.477-2.395-0.77-1.922-0.736-4.076-0.46-5.615 0.723-2.702 2.074-3.311 4.69-3.347 6.52-0.001 0.004-0.001 0.007-0.001 0.011z"></path>
</symbol>
<symbol id="icon-star" viewBox="0 0 32 32">
<path d="M15.982 31.967c-0.659-0.079-1.237-0.48-1.545-1.068-1.189-2.264-2.84-5.073-6.419-8.226-2.852-2.512-5.066-3.977-7.040-5.034-0.45-0.241-0.79-0.653-0.921-1.147-0.14-0.528-0.034-1.080 0.484-1.629 0.001-0.001 0.002-0.002 0.002-0.002 0.857-0.905 5.359-3.442 8.533-6.616 3.415-3.414 4.55-6.693 5.801-7.718 0.161-0.132 0.645-0.528 1.273-0.528 0.019 0 0.038 0 0.058 0.001 0.595 0.019 1.131 0.368 1.411 0.893 1.112 2.086 2.331 4.37 5.692 7.64 3.371 3.553 5.896 4.961 8.084 6.135 0.525 0.281 0.872 0.818 0.89 1.414 0.001 0.018 0.001 0.036 0.001 0.054 0 0.461-0.075 1.068-0.527 1.273-1.879 0.854-4.651 2.459-8.448 6.129-2.924 3.182-4.46 5.506-5.527 7.508-0.341 0.64-1.040 1.006-1.761 0.925-0.013-0.002-0.027-0.003-0.041-0.005z"></path>
</symbol>
<symbol id="icon-your-favorites" viewBox="0 0 353 32">
<path d="M27.121 1.36c-3.238 0.47-3.519 1.314-4.739 3.379-2.394 4.175-4.269 7.648-6.849 12.716-0.235 0.47-0.375 1.033-0.375 1.643l-0.046 6.992c-0.046 3.659 0.329 4.035 4.318 4.644v0.564h-11.823v-0.564c3.894-0.61 4.129-1.033 4.129-4.644v-6.757c0-0.704-0.14-1.174-0.564-2.018-0.564-1.266-4.504-8.914-6.099-11.777-1.882-3.427-2.257-3.802-5.072-4.177v-0.564h10.276v0.564c-3.19 0.421-3.050 1.079-2.44 2.345 2.205 4.318 5.63 10.792 6.757 12.997 1.455-2.815 4.833-9.383 6.099-12.152 0.985-2.064 0.845-2.628-2.72-3.19v-0.564h9.151v0.564z"></path>
<path d="M42.509 0.14c7.883 0 14.826 6.334 14.826 15.484 0 9.853-6.803 16.375-15.201 16.375s-14.872-6.757-14.872-15.484 5.816-16.375 15.248-16.375zM41.618 1.174c-5.443 0-10.322 4.879-10.322 13.982s4.785 15.765 11.871 15.765c5.537 0 10.136-4.785 10.136-13.841 0-10.136-4.927-15.906-11.682-15.906z"></path>
<path d="M91.494 1.36c-3.332 0.564-3.519 1.314-3.659 3.754-0.046 1.125-0.189 2.628-0.189 6.898v6.288c0 4.364-0.469 8.023-3.19 10.792-2.111 2.111-5.068 2.909-8.212 2.909-2.815 0-5.629-0.704-7.413-2.111-3.003-2.394-3.894-5.349-3.894-10.838v-12.67c0-4.083-0.281-4.41-3.754-5.020v-0.564h10.838v0.564c-3.473 0.656-3.8 0.939-3.8 5.020v12.106c0 7.227 2.628 11.59 9.431 11.59 7.319 0 8.539-4.644 8.539-11.777v-6.334c0-4.223-0.046-5.583-0.14-6.992-0.14-2.394-0.516-3.144-4.364-3.613v-0.564h9.807v0.564z"></path>
<path d="M121.756 31.53c-0.375 0-1.501 0-1.83-0.046-3.94-0.235-4.879-0.704-6.757-3.238-1.549-2.159-3.8-5.913-5.443-8.727-1.22-2.064-1.735-2.345-4.129-2.345h-1.97v8.914c0 3.613 0.375 4.129 4.129 4.644v0.564h-11.542v-0.564c3.659-0.564 4.083-0.939 4.083-4.644v-20.175c0-3.613-0.329-3.988-4.083-4.552v-0.564h11.213c3.19 0 5.724 0.516 7.413 1.735 1.689 1.125 2.863 3.238 2.863 5.772 0 3.848-2.58 6.522-6.007 8.023 0.891 1.595 3.049 5.162 4.458 7.273 1.595 2.44 2.815 4.223 3.894 5.395 1.174 1.266 1.97 1.643 3.848 1.97l-0.14 0.564zM104.488 16.235c2.345 0 3.659-0.094 4.974-1.033 1.876-1.314 2.486-3.238 2.486-6.053 0-5.114-2.815-7.413-6.803-7.413-1.735 0-2.58 0.189-2.955 0.421-0.421 0.281-0.564 0.704-0.564 2.205v11.871h2.863z"></path>
<path d="M149.485 7.038c-0.235-0.799-0.375-1.314-0.656-2.111-0.939-2.44-1.83-2.863-5.254-2.863h-4.833c-1.266 0-1.408 0.14-1.408 1.408v11.307h6.147c3.473 0 3.708-0.329 4.458-3.659h0.61v8.773h-0.61c-0.704-3.379-1.079-3.754-4.552-3.754h-6.053v9.853c0 3.708 0.189 4.175 4.41 4.739v0.564h-11.823v-0.564c3.659-0.47 4.083-0.939 4.083-4.739v-19.894c0-3.848-0.329-4.175-4.083-4.739v-0.564h13.841c4.364 0 5.583-0.046 6.099-0.094-0.046 1.22 0.094 4.504 0.281 6.239l-0.656 0.094z"></path>
<path d="M167.503 31.296v-0.564c2.58-0.47 3.284-0.845 2.72-2.534-0.61-2.018-1.784-5.443-3.19-9.337h-9.431c-1.033 3.003-1.924 5.395-2.628 7.648-1.033 3.19-0.329 3.519 3.238 4.223v0.564h-9.807v-0.564c2.628-0.47 3.425-0.799 5.162-5.208l9.758-25.289 0.656-0.094c2.909 8.539 5.959 17.125 9.102 25.853 1.455 4.083 2.018 4.083 4.974 4.739v0.564h-10.557zM162.435 5.537c-1.501 3.988-2.909 8.071-4.364 11.965h8.539l-4.177-11.965z"></path>
<path d="M203.020 1.36c-3.144 0.516-3.613 1.174-5.303 5.208-1.455 3.613-6.474 16.329-9.993 25.431h-0.656c-3.098-8.727-6.288-17.501-9.383-26.087-1.314-3.659-1.97-4.035-5.020-4.552v-0.564h10.978v0.564c-3.144 0.61-3.519 1.125-2.955 2.909 1.174 3.613 6.849 18.909 8.023 22.005 1.876-4.785 5.537-14.686 7.694-20.739 1.033-2.863 0.985-3.565-3.238-4.175v-0.564h9.853v0.564z"></path>
<path d="M219.16 0.14c7.883 0 14.826 6.334 14.826 15.484 0 9.853-6.803 16.375-15.201 16.375s-14.872-6.757-14.872-15.484 5.818-16.375 15.248-16.375zM218.27 1.174c-5.443 0-10.322 4.879-10.322 13.982s4.785 15.765 11.871 15.765c5.537 0 10.136-4.785 10.136-13.841 0-10.136-4.927-15.906-11.682-15.906z"></path>
<path d="M265.188 31.53c-0.375 0-1.501 0-1.83-0.046-3.94-0.235-4.879-0.704-6.757-3.238-1.549-2.159-3.8-5.913-5.443-8.727-1.22-2.064-1.735-2.345-4.129-2.345h-1.97v8.914c0 3.613 0.375 4.129 4.129 4.644v0.564h-11.542v-0.564c3.659-0.564 4.083-0.939 4.083-4.644v-20.175c0-3.613-0.329-3.988-4.083-4.552v-0.564h11.215c3.19 0 5.724 0.516 7.413 1.735 1.689 1.125 2.861 3.238 2.861 5.772 0 3.848-2.58 6.522-6.007 8.023 0.891 1.595 3.049 5.162 4.458 7.273 1.595 2.44 2.815 4.223 3.894 5.395 1.174 1.266 1.97 1.643 3.848 1.97l-0.14 0.564zM247.922 16.235c2.345 0 3.659-0.094 4.974-1.033 1.876-1.314 2.486-3.238 2.486-6.053 0-5.114-2.815-7.413-6.803-7.413-1.735 0-2.58 0.189-2.955 0.421-0.421 0.281-0.564 0.704-0.564 2.205v11.871h2.863z"></path>
<path d="M265.377 31.296v-0.564c3.705-0.656 4.083-1.079 4.083-4.693v-19.94c0-3.894-0.329-4.129-4.083-4.739v-0.564h11.542v0.564c-3.8 0.516-4.129 0.845-4.129 4.739v19.94c0 3.565 0.329 3.988 4.129 4.693v0.564h-11.542z"></path>
<path d="M305.821 7.413c-0.329-1.266-0.564-1.97-0.891-2.769-0.796-1.876-1.501-2.628-4.318-2.628h-5.864v24.117c0 3.519 0.329 4.035 4.458 4.598v0.564h-12.106v-0.564c4.129-0.656 4.318-1.125 4.318-4.598v-24.115h-5.959c-2.628 0-3.050 0.845-3.708 2.064-0.61 1.22-0.845 2.111-1.22 3.33h-0.75c0.329-2.534 0.564-5.068 0.704-7.413h0.469c0.564 0.704 0.845 0.799 2.534 0.799h19.846c1.36 0 1.784-0.14 2.205-0.799h0.564c0 1.924 0.189 4.693 0.421 7.273l-0.704 0.14z"></path>
<path d="M331.86 24.633c-0.235 1.549-1.079 5.254-1.455 6.663h-21.303v-0.564c4.129-0.564 4.41-0.891 4.41-4.739v-19.611c0-4.035-0.14-4.318-3.8-5.020v-0.564h13.277c4.035 0 5.443 0 6.334-0.094 0 1.643 0.189 5.020 0.329 6.382l-0.656 0.094c-0.329-1.22-0.985-2.909-1.455-3.708-0.891-1.314-1.455-1.408-4.223-1.408h-5.114c-1.266 0-1.36 0.14-1.36 1.455v10.886h5.818c3.19 0 3.613-0.61 4.175-3.754h0.61v8.822h-0.61c-0.796-3.284-1.125-3.754-4.083-3.754h-5.913v11.121c0 3.144 1.266 3.238 3.894 3.238h4.644c2.253 0 2.909-0.421 4.083-2.205 0.704-1.033 1.268-2.159 1.784-3.379l0.61 0.14z"></path>
<path d="M351.002 7.084c-0.845-3.284-2.253-5.959-6.522-5.959-3.519 0-5.114 2.628-5.114 5.395 0 3.613 2.018 5.068 5.678 7.227 3.565 2.111 7.694 4.458 7.694 9.526s-4.129 8.727-9.618 8.727c-2.628 0-5.254-0.799-6.663-1.36-0.281-1.266-0.985-5.395-1.079-6.288l0.656-0.14c0.796 2.863 2.909 6.803 7.742 6.803 3.988 0 5.678-3.144 5.678-6.288 0-3.613-2.44-5.583-5.724-7.602-3.519-2.159-7.367-4.41-7.367-9.149 0-4.41 3.613-7.837 8.914-7.837 2.863 0 4.644 0.564 5.678 0.75 0.189 1.643 0.421 3.848 0.75 6.053l-0.704 0.14z"></path>
<path d="M225.896 15.458c0-1.878-1.52-3.398-3.398-3.398s-3.398 1.52-3.398 3.398c0-1.878-1.523-3.398-3.398-3.398s-3.401 1.52-3.401 3.398c0 3.938 4.552 4.364 6.821 6.397 2.253-2.036 6.775-2.543 6.775-6.397z"></path>
<path d="M49.413 15.458c0-1.878-1.52-3.398-3.398-3.398s-3.398 1.52-3.398 3.398c0-1.878-1.523-3.398-3.398-3.398s-3.401 1.52-3.401 3.398c0 3.938 4.552 4.364 6.821 6.397 2.253-2.036 6.775-2.543 6.775-6.397z"></path>
</symbol>
</defs>
</svg>
