<?xml version="1.0" encoding="UTF-8"?>
<svg id="_Слой_1" data-name="Слой_1" xmlns="http://www.w3.org/2000/svg" version="1.1" viewBox="0 0 1607.83 145.86">
  <!-- Generator: Adobe Illustrator 29.1.0, SVG Export Plug-In . SVG Version: 2.1.0 Build 142)  -->
  <g>
    <path class="st0" d="M123.62,6.2c-14.76,2.14-16.04,5.99-21.6,15.4-10.91,19.03-19.46,34.86-31.22,57.96-1.07,2.14-1.71,4.71-1.71,7.49l-.21,31.87c-.21,16.68,1.5,18.39,19.68,21.17v2.57h-53.89v-2.57c17.75-2.78,18.82-4.71,18.82-21.17v-30.8c0-3.21-.64-5.35-2.57-9.2-2.57-5.77-20.53-40.63-27.8-53.68C14.54,9.62,12.83,7.91,0,6.2v-2.57h46.84v2.57c-14.54,1.92-13.9,4.92-11.12,10.69,10.05,19.68,25.66,49.19,30.8,59.24,6.63-12.83,22.03-42.77,27.8-55.39,4.49-9.41,3.85-11.98-12.4-14.54v-2.57h41.71v2.57Z"/>
    <path class="st0" d="M193.76.64c35.93,0,67.58,28.87,67.58,70.58,0,44.91-31.01,74.64-69.29,74.64s-67.79-30.8-67.79-70.58S150.77.64,193.76.64ZM189.7,5.35c-24.81,0-47.05,22.24-47.05,63.73s21.81,71.86,54.11,71.86c25.24,0,46.2-21.81,46.2-63.09,0-46.2-22.46-72.5-53.25-72.5Z"/>
    <path class="st0" d="M417.04,6.2c-15.19,2.57-16.04,5.99-16.68,17.11-.21,5.13-.86,11.98-.86,31.44v28.66c0,19.89-2.14,36.57-14.54,49.19-9.62,9.62-23.1,13.26-37.43,13.26-12.83,0-25.66-3.21-33.79-9.62-13.69-10.91-17.75-24.38-17.75-49.4V29.09c0-18.61-1.28-20.1-17.11-22.88v-2.57h49.4v2.57c-15.83,2.99-17.32,4.28-17.32,22.88v55.18c0,32.94,11.98,52.83,42.99,52.83,33.36,0,38.92-21.17,38.92-53.68v-28.87c0-19.25-.21-25.45-.64-31.87-.64-10.91-2.35-14.33-19.89-16.47v-2.57h44.7v2.57Z"/>
    <path class="st0" d="M554.98,143.72c-1.71,0-6.84,0-8.34-.21-17.96-1.07-22.24-3.21-30.8-14.76-7.06-9.84-17.32-26.95-24.81-39.78-5.56-9.41-7.91-10.69-18.82-10.69h-8.98v40.63c0,16.47,1.71,18.82,18.82,21.17v2.57h-52.61v-2.57c16.68-2.57,18.61-4.28,18.61-21.17V26.95c0-16.47-1.5-18.18-18.61-20.75v-2.57h51.11c14.54,0,26.09,2.35,33.79,7.91,7.7,5.13,13.05,14.76,13.05,26.31,0,17.54-11.76,29.73-27.38,36.57,4.06,7.27,13.9,23.53,20.32,33.15,7.27,11.12,12.83,19.25,17.75,24.59,5.35,5.77,8.98,7.49,17.54,8.98l-.64,2.57ZM476.27,74c10.69,0,16.68-.43,22.67-4.71,8.55-5.99,11.33-14.76,11.33-27.59,0-23.31-12.83-33.79-31.01-33.79-7.91,0-11.76.86-13.47,1.92-1.92,1.28-2.57,3.21-2.57,10.05v54.11h13.05Z"/>
    <path class="st0" d="M681.37,32.08c-1.07-3.64-1.71-5.99-2.99-9.62-4.28-11.12-8.34-13.05-23.95-13.05h-22.03c-5.77,0-6.42.64-6.42,6.42v51.54h28.02c15.83,0,16.9-1.5,20.32-16.68h2.78v39.99h-2.78c-3.21-15.4-4.92-17.11-20.75-17.11h-27.59v44.91c0,16.9.86,19.03,20.1,21.6v2.57h-53.89v-2.57c16.68-2.14,18.61-4.28,18.61-21.6V27.8c0-17.54-1.5-19.03-18.61-21.6v-2.57h63.09c19.89,0,25.45-.21,27.8-.43-.21,5.56.43,20.53,1.28,28.44l-2.99.43Z"/>
    <path class="st0" d="M763.5,142.65v-2.57c11.76-2.14,14.97-3.85,12.4-11.55-2.78-9.2-8.13-24.81-14.54-42.56h-42.99c-4.71,13.69-8.77,24.59-11.98,34.86-4.71,14.54-1.5,16.04,14.76,19.25v2.57h-44.7v-2.57c11.98-2.14,15.61-3.64,23.53-23.74L744.46,1.07l2.99-.43c13.26,38.92,27.16,78.06,41.49,117.84,6.63,18.61,9.2,18.61,22.67,21.6v2.57h-48.12ZM740.4,25.24c-6.84,18.18-13.26,36.79-19.89,54.54h38.92l-19.04-54.54Z"/>
    <path class="st0" d="M925.39,6.2c-14.33,2.35-16.47,5.35-24.17,23.74-6.63,16.47-29.51,74.43-45.55,115.92h-2.99c-14.12-39.78-28.66-79.77-42.77-118.91-5.99-16.68-8.98-18.39-22.88-20.75v-2.57h50.04v2.57c-14.33,2.78-16.04,5.13-13.47,13.26,5.35,16.47,31.22,86.19,36.57,100.3,8.55-21.81,25.24-66.94,35.07-94.53,4.71-13.05,4.49-16.25-14.76-19.03v-2.57h44.91v2.57Z"/>
    <path class="st0" d="M998.96.64c35.93,0,67.58,28.87,67.58,70.58,0,44.91-31.01,74.64-69.29,74.64s-67.79-30.8-67.79-70.58S955.98.64,998.96.64ZM994.9,5.35c-24.81,0-47.05,22.24-47.05,63.73s21.81,71.86,54.11,71.86c25.24,0,46.2-21.81,46.2-63.09,0-46.2-22.46-72.5-53.25-72.5Z"/>
    <path class="st0" d="M1208.76,143.72c-1.71,0-6.84,0-8.34-.21-17.96-1.07-22.24-3.21-30.8-14.76-7.06-9.84-17.32-26.95-24.81-39.78-5.56-9.41-7.91-10.69-18.82-10.69h-8.98v40.63c0,16.47,1.71,18.82,18.82,21.17v2.57h-52.61v-2.57c16.68-2.57,18.61-4.28,18.61-21.17V26.95c0-16.47-1.5-18.18-18.61-20.75v-2.57h51.12c14.54,0,26.09,2.35,33.79,7.91,7.7,5.13,13.04,14.76,13.04,26.31,0,17.54-11.76,29.73-27.38,36.57,4.06,7.27,13.9,23.53,20.32,33.15,7.27,11.12,12.83,19.25,17.75,24.59,5.35,5.77,8.98,7.49,17.54,8.98l-.64,2.57ZM1130.06,74c10.69,0,16.68-.43,22.67-4.71,8.55-5.99,11.33-14.76,11.33-27.59,0-23.31-12.83-33.79-31.01-33.79-7.91,0-11.76.86-13.47,1.92-1.92,1.28-2.57,3.21-2.57,10.05v54.11h13.05Z"/>
    <path class="st0" d="M1209.62,142.65v-2.57c16.89-2.99,18.61-4.92,18.61-21.39V27.8c0-17.75-1.5-18.82-18.61-21.6v-2.57h52.61v2.57c-17.32,2.35-18.82,3.85-18.82,21.6v90.89c0,16.25,1.5,18.18,18.82,21.39v2.57h-52.61Z"/>
    <path class="st0" d="M1393.97,33.79c-1.5-5.77-2.57-8.98-4.06-12.62-3.63-8.55-6.84-11.98-19.68-11.98h-26.73v109.93c0,16.04,1.5,18.39,20.32,20.96v2.57h-55.18v-2.57c18.82-2.99,19.68-5.13,19.68-20.96V9.2h-27.16c-11.98,0-13.9,3.85-16.9,9.41-2.78,5.56-3.85,9.62-5.56,15.18h-3.42c1.5-11.55,2.57-23.1,3.21-33.79h2.14c2.57,3.21,3.85,3.64,11.55,3.64h90.46c6.2,0,8.13-.64,10.05-3.64h2.57c0,8.77.86,21.39,1.92,33.15l-3.21.64Z"/>
    <path class="st0" d="M1512.66,112.28c-1.07,7.06-4.92,23.95-6.63,30.37h-97.1v-2.57c18.82-2.57,20.1-4.06,20.1-21.6V29.09c0-18.39-.64-19.68-17.32-22.88v-2.57h60.52c18.39,0,24.81,0,28.87-.43,0,7.49.86,22.88,1.5,29.09l-2.99.43c-1.5-5.56-4.49-13.26-6.63-16.9-4.06-5.99-6.63-6.42-19.25-6.42h-23.31c-5.77,0-6.2.64-6.2,6.63v49.62h26.52c14.54,0,16.47-2.78,19.03-17.11h2.78v40.21h-2.78c-3.63-14.97-5.13-17.11-18.61-17.11h-26.95v50.69c0,14.33,5.77,14.76,17.75,14.76h21.17c10.27,0,13.26-1.92,18.61-10.05,3.21-4.71,5.78-9.84,8.13-15.4l2.78.64Z"/>
    <path class="st0" d="M1599.91,32.29c-3.85-14.97-10.27-27.16-29.73-27.16-16.04,0-23.31,11.98-23.31,24.59,0,16.47,9.2,23.1,25.88,32.94,16.25,9.62,35.07,20.32,35.07,43.42s-18.82,39.78-43.84,39.78c-11.98,0-23.95-3.64-30.37-6.2-1.28-5.77-4.49-24.59-4.92-28.66l2.99-.64c3.63,13.05,13.26,31.01,35.29,31.01,18.18,0,25.88-14.33,25.88-28.66,0-16.47-11.12-25.45-26.09-34.65-16.04-9.84-33.58-20.1-33.58-41.7,0-20.1,16.47-35.72,40.63-35.72,13.05,0,21.17,2.57,25.88,3.42.86,7.49,1.92,17.54,3.42,27.59l-3.21.64Z"/>
  </g>
  <path class="st0" d="M1029.66,70.46c0-8.56-6.93-15.49-15.49-15.49s-15.49,6.93-15.49,15.49c0-8.56-6.94-15.49-15.49-15.49s-15.5,6.93-15.5,15.49c0,17.95,20.75,19.89,31.09,29.16,10.27-9.28,30.88-11.59,30.88-29.16"/>
  <path class="st0" d="M225.23,70.46c0-8.56-6.93-15.49-15.49-15.49s-15.49,6.93-15.49,15.49c0-8.56-6.94-15.49-15.49-15.49s-15.5,6.93-15.5,15.49c0,17.95,20.75,19.89,31.09,29.16,10.27-9.28,30.88-11.59,30.88-29.16"/>
</svg>